<svg xmlns="http://www.w3.org/2000/svg" viewBox="0 0 320 80" fill="none" role="img" aria-label="GPU">
  <rect x="2" y="2" width="9" height="76" rx="2" fill="#eef2f7" stroke="#cbd5e1" stroke-width="2"/>
  <rect x="4.5" y="12" width="4" height="14" rx="1.5" fill="#f8fafc"/>
  <rect x="4.5" y="34" width="4" height="14" rx="1.5" fill="#f8fafc"/>
  <rect x="11" y="6" width="303" height="56" rx="8" fill="#e2e8f0" stroke="#cbd5e1" stroke-width="3"/>
  <circle cx="68" cy="34" r="21" fill="#eef2f7" stroke="#cbd5e1" stroke-width="3"/>
  <circle cx="68" cy="34" r="6" fill="#cbd5e1"/>
  <path d="M 68 15 C 80 20 82 30 70 32" stroke="#cbd5e1" stroke-width="3"/>
  <path d="M 87 34 C 82 46 72 48 70 36" stroke="#cbd5e1" stroke-width="3"/>
  <path d="M 68 53 C 56 48 54 38 66 36" stroke="#cbd5e1" stroke-width="3"/>
  <path d="M 49 34 C 54 22 64 20 66 32" stroke="#cbd5e1" stroke-width="3"/>
  <circle cx="162" cy="34" r="21" fill="#eef2f7" stroke="#cbd5e1" stroke-width="3"/>
  <circle cx="162" cy="34" r="6" fill="#cbd5e1"/>
  <path d="M 162 15 C 174 20 176 30 164 32" stroke="#cbd5e1" stroke-width="3"/>
  <path d="M 181 34 C 176 46 166 48 164 36" stroke="#cbd5e1" stroke-width="3"/>
  <path d="M 162 53 C 150 48 148 38 160 36" stroke="#cbd5e1" stroke-width="3"/>
  <path d="M 143 34 C 148 22 158 20 160 32" stroke="#cbd5e1" stroke-width="3"/>
  <circle cx="256" cy="34" r="21" fill="#eef2f7" stroke="#cbd5e1" stroke-width="3"/>
  <circle cx="256" cy="34" r="6" fill="#cbd5e1"/>
  <path d="M 256 15 C 268 20 270 30 258 32" stroke="#cbd5e1" stroke-width="3"/>
  <path d="M 275 34 C 270 46 260 48 258 36" stroke="#cbd5e1" stroke-width="3"/>
  <path d="M 256 53 C 244 48 242 38 254 36" stroke="#cbd5e1" stroke-width="3"/>
  <path d="M 237 34 C 242 22 252 20 254 32" stroke="#cbd5e1" stroke-width="3"/>
  <line x1="290" y1="14" x2="304" y2="28" stroke="#cbd5e1" stroke-width="2.5"/>
  <line x1="290" y1="26" x2="304" y2="40" stroke="#cbd5e1" stroke-width="2.5"/>
  <rect x="272" y="0" width="28" height="7" rx="2" fill="#94a3b8"/>
  <rect x="36" y="62" width="152" height="12" fill="#94a3b8"/>
  <rect x="64" y="62" width="6" height="12" fill="#f8fafc"/>
  <circle cx="22" cy="14" r="2" fill="#cbd5e1"/>
  <circle cx="302" cy="54" r="2" fill="#cbd5e1"/>
</svg>
