<svg xmlns="http://www.w3.org/2000/svg" viewBox="0 0 168 224" fill="none" role="img" aria-label="RAM">
  <defs>
    <g id="stick">
      <rect x="8" y="8" width="56" height="170" rx="6" fill="#e2e8f0" stroke="#cbd5e1" stroke-width="3"/>
      <line x1="22" y1="10" x2="22" y2="28" stroke="#cbd5e1" stroke-width="2.5"/>
      <line x1="36" y1="10" x2="36" y2="28" stroke="#cbd5e1" stroke-width="2.5"/>
      <line x1="50" y1="10" x2="50" y2="28" stroke="#cbd5e1" stroke-width="2.5"/>
      <line x1="8" y1="32" x2="64" y2="32" stroke="#cbd5e1" stroke-width="2.5"/>
      <rect x="16" y="46" width="40" height="20" rx="3" fill="#eef2f7" stroke="#cbd5e1" stroke-width="2.5"/>
      <rect x="16" y="80" width="40" height="58" rx="3" fill="#f8fafc" stroke="#cbd5e1" stroke-width="2.5"/>
      <line x1="22" y1="94" x2="50" y2="94" stroke="#cbd5e1" stroke-width="2.5"/>
      <line x1="22" y1="106" x2="50" y2="106" stroke="#cbd5e1" stroke-width="2.5"/>
      <line x1="22" y1="118" x2="42" y2="118" stroke="#cbd5e1" stroke-width="2.5"/>
      <rect x="16" y="150" width="40" height="18" rx="3" fill="#eef2f7" stroke="#cbd5e1" stroke-width="2.5"/>
      <rect x="8" y="182" width="56" height="14" fill="#eef2f7" stroke="#cbd5e1" stroke-width="2.5"/>
      <rect x="18" y="185" width="14" height="8" rx="1.5" fill="#e2e8f0"/>
      <rect x="40" y="185" width="14" height="8" rx="1.5" fill="#e2e8f0"/>
      <rect x="8" y="200" width="56" height="16" fill="#94a3b8"/>
      <rect x="33" y="200" width="5" height="16" fill="#f8fafc"/>
      <line x1="16" y1="200" x2="16" y2="216" stroke="#f8fafc" stroke-width="1.4"/>
      <line x1="24" y1="200" x2="24" y2="216" stroke="#f8fafc" stroke-width="1.4"/>
      <line x1="46" y1="200" x2="46" y2="216" stroke="#f8fafc" stroke-width="1.4"/>
      <line x1="54" y1="200" x2="54" y2="216" stroke="#f8fafc" stroke-width="1.4"/>
    </g>
  </defs>
  <use href="#stick"/>
  <use href="#stick" x="88"/>
</svg>
