<svg xmlns="http://www.w3.org/2000/svg" width="307" height="347" viewBox="0 0 307 347" role="img" aria-labelledby="title desc">
  <title id="title">Orange letter D</title>
  <desc id="desc">A bold orange uppercase D on a light gray background.</desc>
  <rect width="307" height="347" fill="#f5f5f5"/>
  <path
    fill="#e36226"
    fill-rule="evenodd"
    d="M52 44.5h78.5c43.1 0 76.2 10.7 98.6 32.8 22.5 22.2 33.9 53.1 33.9 92.2 0 39.2-11.4 70.1-33.9 92.3-22.4 22.1-55.5 33.2-98.6 33.2H52a4 4 0 0 1-4-4V48.5a4 4 0 0 1 4-4Zm42 43v164.7h34.4c29.4 0 51-6.8 65.4-20.6 14.2-13.7 21.4-34.4 21.4-62.1 0-27.6-7.2-48.2-21.4-61.9-14.4-13.5-36-20.1-65.4-20.1H94Z"
  />
</svg>
